<svg width="24" height="24" viewBox="0 0 24 24" fill="none" xmlns="http://www.w3.org/2000/svg">
<path d="M21.8729 11.6111C21.6942 11.3667 17.4371 5.62646 11.9999 5.62646C6.56274 5.62646 2.30539 11.3667 2.12691 11.6109C1.9577 11.8427 1.9577 12.1572 2.12691 12.3891C2.30539 12.6335 6.56274 18.3737 11.9999 18.3737C17.4371 18.3737 21.6942 12.6335 21.8729 12.3893C22.0423 12.1575 22.0423 11.8427 21.8729 11.6111ZM11.9999 17.055C7.99486 17.055 4.52606 13.2452 3.49922 11.9996C4.52473 10.753 7.98626 6.94514 11.9999 6.94514C16.0048 6.94514 19.4733 10.7544 20.5006 12.0005C19.4751 13.2471 16.0135 17.055 11.9999 17.055Z" fill="white"/>
<path d="M12.0005 8.0437C9.81916 8.0437 8.04443 9.81843 8.04443 11.9998C8.04443 14.1811 9.81916 15.9558 12.0005 15.9558C14.1818 15.9558 15.9565 14.1811 15.9565 11.9998C15.9565 9.81843 14.1818 8.0437 12.0005 8.0437ZM12.0005 14.6371C10.5462 14.6371 9.36314 13.454 9.36314 11.9998C9.36314 10.5455 10.5462 9.36241 12.0005 9.36241C13.4547 9.36241 14.6378 10.5455 14.6378 11.9998C14.6378 13.454 13.4548 14.6371 12.0005 14.6371Z" fill="white"/>
</svg>
